<?xml version="1.0" encoding="utf-8"?>
<!-- Generator: Adobe Illustrator 26.0.1, SVG Export Plug-In . SVG Version: 6.00 Build 0)  -->
<svg version="1.1" id="Layer_1" xmlns="http://www.w3.org/2000/svg" xmlns:xlink="http://www.w3.org/1999/xlink" x="0px" y="0px"
	 viewBox="0 0 1366 768" style="enable-background:new 0 0 1366 768;" xml:space="preserve">
<style type="text/css">
	.st0{fill:#FFFDF3;}
	.st1{fill:#FF9999;}
</style>
<rect x="1" class="st0" width="1365" height="768"/>
<g>
	<g>
		<g>
			<g>
				<g>
					<g>
						<g>
							<g>
								<rect x="-42" y="-73.75" class="st1" width="1.97" height="863.75"/>
							</g>
							<g>
								<rect x="-38.06" y="-73.75" class="st1" width="1.97" height="863.75"/>
							</g>
							<g>
								<rect x="-34.11" y="-73.75" class="st1" width="1.97" height="863.75"/>
							</g>
							<g>
								<rect x="-30.17" y="-73.75" class="st1" width="1.97" height="863.75"/>
							</g>
							<g>
								<rect x="-26.23" y="-73.75" class="st1" width="1.97" height="863.75"/>
							</g>
						</g>
						<g>
							<g>
								<rect x="-22.29" y="-73.75" class="st1" width="1.97" height="863.75"/>
							</g>
							<g>
								<rect x="-18.34" y="-73.75" class="st1" width="1.97" height="863.75"/>
							</g>
							<g>
								<rect x="-14.4" y="-73.75" class="st1" width="1.97" height="863.75"/>
							</g>
							<g>
								<rect x="-10.46" y="-73.75" class="st1" width="1.97" height="863.75"/>
							</g>
							<g>
								<rect x="-6.51" y="-73.75" class="st1" width="1.97" height="863.75"/>
							</g>
						</g>
						<g>
							<g>
								<rect x="-2.57" y="-73.75" class="st1" width="1.97" height="863.75"/>
							</g>
							<g>
								<rect x="1.37" y="-73.75" class="st1" width="1.97" height="863.75"/>
							</g>
							<g>
								<rect x="5.31" y="-73.75" class="st1" width="1.97" height="863.75"/>
							</g>
							<g>
								<rect x="9.26" y="-73.75" class="st1" width="1.97" height="863.75"/>
							</g>
							<g>
								<rect x="13.2" y="-73.75" class="st1" width="1.97" height="863.75"/>
							</g>
						</g>
						<g>
							<g>
								<rect x="17.14" y="-73.75" class="st1" width="1.97" height="863.75"/>
							</g>
							<g>
								<rect x="21.09" y="-73.75" class="st1" width="1.97" height="863.75"/>
							</g>
							<g>
								<rect x="25.03" y="-73.75" class="st1" width="1.97" height="863.75"/>
							</g>
							<g>
								<rect x="28.97" y="-73.75" class="st1" width="1.97" height="863.75"/>
							</g>
							<g>
								<rect x="32.91" y="-73.75" class="st1" width="1.97" height="863.75"/>
							</g>
						</g>
					</g>
					<g>
						<rect x="36.79" y="-73.75" class="st1" width="1.97" height="863.75"/>
					</g>
					<g>
						<rect x="40.74" y="-73.75" class="st1" width="1.97" height="863.75"/>
					</g>
					<g>
						<rect x="44.68" y="-73.75" class="st1" width="1.97" height="863.75"/>
					</g>
				</g>
				<g>
					<g>
						<g>
							<g>
								<rect x="48.69" y="-73.75" class="st1" width="1.97" height="863.75"/>
							</g>
							<g>
								<rect x="52.63" y="-73.75" class="st1" width="1.97" height="863.75"/>
							</g>
							<g>
								<rect x="56.58" y="-73.75" class="st1" width="1.97" height="863.75"/>
							</g>
							<g>
								<rect x="60.52" y="-73.75" class="st1" width="1.97" height="863.75"/>
							</g>
							<g>
								<rect x="64.46" y="-73.75" class="st1" width="1.97" height="863.75"/>
							</g>
						</g>
						<g>
							<g>
								<rect x="68.41" y="-73.75" class="st1" width="1.97" height="863.75"/>
							</g>
							<g>
								<rect x="72.35" y="-73.75" class="st1" width="1.97" height="863.75"/>
							</g>
							<g>
								<rect x="76.29" y="-73.75" class="st1" width="1.97" height="863.75"/>
							</g>
							<g>
								<rect x="80.23" y="-73.75" class="st1" width="1.97" height="863.75"/>
							</g>
							<g>
								<rect x="84.18" y="-73.75" class="st1" width="1.97" height="863.75"/>
							</g>
						</g>
						<g>
							<g>
								<rect x="88.12" y="-73.75" class="st1" width="1.97" height="863.75"/>
							</g>
							<g>
								<rect x="92.06" y="-73.75" class="st1" width="1.97" height="863.75"/>
							</g>
							<g>
								<rect x="96.01" y="-73.75" class="st1" width="1.97" height="863.75"/>
							</g>
							<g>
								<rect x="99.95" y="-73.75" class="st1" width="1.97" height="863.75"/>
							</g>
							<g>
								<rect x="103.89" y="-73.75" class="st1" width="1.97" height="863.75"/>
							</g>
						</g>
						<g>
							<g>
								<rect x="107.83" y="-73.75" class="st1" width="1.97" height="863.75"/>
							</g>
							<g>
								<rect x="111.78" y="-73.75" class="st1" width="1.97" height="863.75"/>
							</g>
							<g>
								<rect x="115.72" y="-73.75" class="st1" width="1.97" height="863.75"/>
							</g>
							<g>
								<rect x="119.66" y="-73.75" class="st1" width="1.97" height="863.75"/>
							</g>
							<g>
								<rect x="123.61" y="-73.75" class="st1" width="1.97" height="863.75"/>
							</g>
						</g>
					</g>
					<g>
						<rect x="127.49" y="-73.75" class="st1" width="1.97" height="863.75"/>
					</g>
					<g>
						<rect x="131.43" y="-73.75" class="st1" width="1.97" height="863.75"/>
					</g>
					<g>
						<rect x="135.37" y="-73.75" class="st1" width="1.97" height="863.75"/>
					</g>
				</g>
			</g>
			<g>
				<g>
					<g>
						<g>
							<g>
								<rect x="139.08" y="-73.75" class="st1" width="1.97" height="863.75"/>
							</g>
							<g>
								<rect x="143.02" y="-73.75" class="st1" width="1.97" height="863.75"/>
							</g>
							<g>
								<rect x="146.96" y="-73.75" class="st1" width="1.97" height="863.75"/>
							</g>
							<g>
								<rect x="150.9" y="-73.75" class="st1" width="1.97" height="863.75"/>
							</g>
							<g>
								<rect x="154.85" y="-73.75" class="st1" width="1.97" height="863.75"/>
							</g>
						</g>
						<g>
							<g>
								<rect x="158.79" y="-73.75" class="st1" width="1.97" height="863.75"/>
							</g>
							<g>
								<rect x="162.73" y="-73.75" class="st1" width="1.97" height="863.75"/>
							</g>
							<g>
								<rect x="166.68" y="-73.75" class="st1" width="1.97" height="863.75"/>
							</g>
							<g>
								<rect x="170.62" y="-73.75" class="st1" width="1.97" height="863.75"/>
							</g>
							<g>
								<rect x="174.56" y="-73.75" class="st1" width="1.97" height="863.75"/>
							</g>
						</g>
						<g>
							<g>
								<rect x="178.5" y="-73.75" class="st1" width="1.97" height="863.75"/>
							</g>
							<g>
								<rect x="182.45" y="-73.75" class="st1" width="1.97" height="863.75"/>
							</g>
							<g>
								<rect x="186.39" y="-73.75" class="st1" width="1.97" height="863.75"/>
							</g>
							<g>
								<rect x="190.33" y="-73.75" class="st1" width="1.97" height="863.75"/>
							</g>
							<g>
								<rect x="194.28" y="-73.75" class="st1" width="1.97" height="863.75"/>
							</g>
						</g>
						<g>
							<g>
								<rect x="198.22" y="-73.75" class="st1" width="1.97" height="863.75"/>
							</g>
							<g>
								<rect x="202.16" y="-73.75" class="st1" width="1.97" height="863.75"/>
							</g>
							<g>
								<rect x="206.1" y="-73.75" class="st1" width="1.97" height="863.75"/>
							</g>
							<g>
								<rect x="210.05" y="-73.75" class="st1" width="1.97" height="863.75"/>
							</g>
							<g>
								<rect x="213.99" y="-73.75" class="st1" width="1.97" height="863.75"/>
							</g>
						</g>
					</g>
					<g>
						<rect x="217.87" y="-73.75" class="st1" width="1.97" height="863.75"/>
					</g>
					<g>
						<rect x="221.81" y="-73.75" class="st1" width="1.97" height="863.75"/>
					</g>
					<g>
						<rect x="225.76" y="-73.75" class="st1" width="1.97" height="863.75"/>
					</g>
				</g>
				<g>
					<g>
						<g>
							<g>
								<rect x="229.77" y="-73.75" class="st1" width="1.97" height="863.75"/>
							</g>
							<g>
								<rect x="233.71" y="-73.75" class="st1" width="1.97" height="863.75"/>
							</g>
							<g>
								<rect x="237.65" y="-73.75" class="st1" width="1.97" height="863.75"/>
							</g>
							<g>
								<rect x="241.6" y="-73.75" class="st1" width="1.97" height="863.75"/>
							</g>
							<g>
								<rect x="245.54" y="-73.75" class="st1" width="1.97" height="863.75"/>
							</g>
						</g>
						<g>
							<g>
								<rect x="249.48" y="-73.75" class="st1" width="1.97" height="863.75"/>
							</g>
							<g>
								<rect x="253.42" y="-73.75" class="st1" width="1.97" height="863.75"/>
							</g>
							<g>
								<rect x="257.37" y="-73.75" class="st1" width="1.97" height="863.75"/>
							</g>
							<g>
								<rect x="261.31" y="-73.75" class="st1" width="1.97" height="863.75"/>
							</g>
							<g>
								<rect x="265.25" y="-73.75" class="st1" width="1.97" height="863.75"/>
							</g>
						</g>
						<g>
							<g>
								<rect x="269.2" y="-73.75" class="st1" width="1.97" height="863.75"/>
							</g>
							<g>
								<rect x="273.14" y="-73.75" class="st1" width="1.97" height="863.75"/>
							</g>
							<g>
								<rect x="277.08" y="-73.75" class="st1" width="1.97" height="863.75"/>
							</g>
							<g>
								<rect x="281.02" y="-73.75" class="st1" width="1.97" height="863.75"/>
							</g>
							<g>
								<rect x="284.97" y="-73.75" class="st1" width="1.97" height="863.75"/>
							</g>
						</g>
						<g>
							<g>
								<rect x="288.91" y="-73.75" class="st1" width="1.97" height="863.75"/>
							</g>
							<g>
								<rect x="292.85" y="-73.75" class="st1" width="1.97" height="863.75"/>
							</g>
							<g>
								<rect x="296.8" y="-73.75" class="st1" width="1.97" height="863.75"/>
							</g>
							<g>
								<rect x="300.74" y="-73.75" class="st1" width="1.97" height="863.75"/>
							</g>
							<g>
								<rect x="304.68" y="-73.75" class="st1" width="1.97" height="863.75"/>
							</g>
						</g>
					</g>
					<g>
						<rect x="308.56" y="-73.75" class="st1" width="1.97" height="863.75"/>
					</g>
					<g>
						<rect x="312.5" y="-73.75" class="st1" width="1.97" height="863.75"/>
					</g>
					<g>
						<rect x="316.45" y="-73.75" class="st1" width="1.97" height="863.75"/>
					</g>
				</g>
			</g>
		</g>
		<g>
			<g>
				<g>
					<g>
						<g>
							<g>
								<rect x="320.19" y="-73.75" class="st1" width="1.97" height="863.75"/>
							</g>
							<g>
								<rect x="324.14" y="-73.75" class="st1" width="1.97" height="863.75"/>
							</g>
							<g>
								<rect x="328.08" y="-73.75" class="st1" width="1.97" height="863.75"/>
							</g>
							<g>
								<rect x="332.02" y="-73.75" class="st1" width="1.97" height="863.75"/>
							</g>
							<g>
								<rect x="335.97" y="-73.75" class="st1" width="1.97" height="863.75"/>
							</g>
						</g>
						<g>
							<g>
								<rect x="339.91" y="-73.75" class="st1" width="1.97" height="863.75"/>
							</g>
							<g>
								<rect x="343.85" y="-73.75" class="st1" width="1.97" height="863.75"/>
							</g>
							<g>
								<rect x="347.79" y="-73.75" class="st1" width="1.97" height="863.75"/>
							</g>
							<g>
								<rect x="351.74" y="-73.75" class="st1" width="1.97" height="863.75"/>
							</g>
							<g>
								<rect x="355.68" y="-73.75" class="st1" width="1.97" height="863.75"/>
							</g>
						</g>
						<g>
							<g>
								<rect x="359.62" y="-73.75" class="st1" width="1.97" height="863.75"/>
							</g>
							<g>
								<rect x="363.57" y="-73.75" class="st1" width="1.97" height="863.75"/>
							</g>
							<g>
								<rect x="367.51" y="-73.75" class="st1" width="1.97" height="863.75"/>
							</g>
							<g>
								<rect x="371.45" y="-73.75" class="st1" width="1.97" height="863.75"/>
							</g>
							<g>
								<rect x="375.39" y="-73.75" class="st1" width="1.97" height="863.75"/>
							</g>
						</g>
						<g>
							<g>
								<rect x="379.34" y="-73.75" class="st1" width="1.97" height="863.75"/>
							</g>
							<g>
								<rect x="383.28" y="-73.75" class="st1" width="1.97" height="863.75"/>
							</g>
							<g>
								<rect x="387.22" y="-73.75" class="st1" width="1.97" height="863.75"/>
							</g>
							<g>
								<rect x="391.17" y="-73.75" class="st1" width="1.97" height="863.75"/>
							</g>
							<g>
								<rect x="395.11" y="-73.75" class="st1" width="1.97" height="863.75"/>
							</g>
						</g>
					</g>
					<g>
						<rect x="398.99" y="-73.75" class="st1" width="1.97" height="863.75"/>
					</g>
					<g>
						<rect x="402.93" y="-73.75" class="st1" width="1.97" height="863.75"/>
					</g>
					<g>
						<rect x="406.87" y="-73.75" class="st1" width="1.97" height="863.75"/>
					</g>
				</g>
				<g>
					<g>
						<g>
							<g>
								<rect x="410.89" y="-73.75" class="st1" width="1.97" height="863.75"/>
							</g>
							<g>
								<rect x="414.83" y="-73.75" class="st1" width="1.97" height="863.75"/>
							</g>
							<g>
								<rect x="418.77" y="-73.75" class="st1" width="1.97" height="863.75"/>
							</g>
							<g>
								<rect x="422.71" y="-73.75" class="st1" width="1.97" height="863.75"/>
							</g>
							<g>
								<rect x="426.66" y="-73.75" class="st1" width="1.97" height="863.75"/>
							</g>
						</g>
						<g>
							<g>
								<rect x="430.6" y="-73.75" class="st1" width="1.97" height="863.75"/>
							</g>
							<g>
								<rect x="434.54" y="-73.75" class="st1" width="1.97" height="863.75"/>
							</g>
							<g>
								<rect x="438.49" y="-73.75" class="st1" width="1.97" height="863.75"/>
							</g>
							<g>
								<rect x="442.43" y="-73.75" class="st1" width="1.97" height="863.75"/>
							</g>
							<g>
								<rect x="446.37" y="-73.75" class="st1" width="1.97" height="863.75"/>
							</g>
						</g>
						<g>
							<g>
								<rect x="450.31" y="-73.75" class="st1" width="1.97" height="863.75"/>
							</g>
							<g>
								<rect x="454.26" y="-73.75" class="st1" width="1.97" height="863.75"/>
							</g>
							<g>
								<rect x="458.2" y="-73.75" class="st1" width="1.97" height="863.75"/>
							</g>
							<g>
								<rect x="462.14" y="-73.75" class="st1" width="1.97" height="863.75"/>
							</g>
							<g>
								<rect x="466.09" y="-73.75" class="st1" width="1.97" height="863.75"/>
							</g>
						</g>
						<g>
							<g>
								<rect x="470.03" y="-73.75" class="st1" width="1.97" height="863.75"/>
							</g>
							<g>
								<rect x="473.97" y="-73.75" class="st1" width="1.97" height="863.75"/>
							</g>
							<g>
								<rect x="477.91" y="-73.75" class="st1" width="1.97" height="863.75"/>
							</g>
							<g>
								<rect x="481.86" y="-73.75" class="st1" width="1.97" height="863.75"/>
							</g>
							<g>
								<rect x="485.8" y="-73.75" class="st1" width="1.97" height="863.75"/>
							</g>
						</g>
					</g>
					<g>
						<rect x="489.68" y="-73.75" class="st1" width="1.97" height="863.75"/>
					</g>
					<g>
						<rect x="493.62" y="-73.75" class="st1" width="1.97" height="863.75"/>
					</g>
					<g>
						<rect x="497.56" y="-73.75" class="st1" width="1.97" height="863.75"/>
					</g>
				</g>
			</g>
			<g>
				<g>
					<g>
						<g>
							<g>
								<rect x="501.27" y="-73.75" class="st1" width="1.97" height="863.75"/>
							</g>
							<g>
								<rect x="505.21" y="-73.75" class="st1" width="1.97" height="863.75"/>
							</g>
							<g>
								<rect x="509.16" y="-73.75" class="st1" width="1.97" height="863.75"/>
							</g>
							<g>
								<rect x="513.1" y="-73.75" class="st1" width="1.97" height="863.75"/>
							</g>
							<g>
								<rect x="517.04" y="-73.75" class="st1" width="1.97" height="863.75"/>
							</g>
						</g>
						<g>
							<g>
								<rect x="520.98" y="-73.75" class="st1" width="1.97" height="863.75"/>
							</g>
							<g>
								<rect x="524.93" y="-73.75" class="st1" width="1.97" height="863.75"/>
							</g>
							<g>
								<rect x="528.87" y="-73.75" class="st1" width="1.97" height="863.75"/>
							</g>
							<g>
								<rect x="532.81" y="-73.75" class="st1" width="1.97" height="863.75"/>
							</g>
							<g>
								<rect x="536.76" y="-73.75" class="st1" width="1.97" height="863.75"/>
							</g>
						</g>
						<g>
							<g>
								<rect x="540.7" y="-73.75" class="st1" width="1.97" height="863.75"/>
							</g>
							<g>
								<rect x="544.64" y="-73.75" class="st1" width="1.97" height="863.75"/>
							</g>
							<g>
								<rect x="548.58" y="-73.75" class="st1" width="1.97" height="863.75"/>
							</g>
							<g>
								<rect x="552.53" y="-73.75" class="st1" width="1.97" height="863.75"/>
							</g>
							<g>
								<rect x="556.47" y="-73.75" class="st1" width="1.97" height="863.75"/>
							</g>
						</g>
						<g>
							<g>
								<rect x="560.41" y="-73.75" class="st1" width="1.97" height="863.75"/>
							</g>
							<g>
								<rect x="564.36" y="-73.75" class="st1" width="1.97" height="863.75"/>
							</g>
							<g>
								<rect x="568.3" y="-73.75" class="st1" width="1.97" height="863.75"/>
							</g>
							<g>
								<rect x="572.24" y="-73.75" class="st1" width="1.97" height="863.75"/>
							</g>
							<g>
								<rect x="576.18" y="-73.75" class="st1" width="1.97" height="863.75"/>
							</g>
						</g>
					</g>
					<g>
						<rect x="580.06" y="-73.75" class="st1" width="1.97" height="863.75"/>
					</g>
					<g>
						<rect x="584.01" y="-73.75" class="st1" width="1.97" height="863.75"/>
					</g>
					<g>
						<rect x="587.95" y="-73.75" class="st1" width="1.97" height="863.75"/>
					</g>
				</g>
				<g>
					<g>
						<g>
							<g>
								<rect x="591.96" y="-73.75" class="st1" width="1.97" height="863.75"/>
							</g>
							<g>
								<rect x="595.9" y="-73.75" class="st1" width="1.97" height="863.75"/>
							</g>
							<g>
								<rect x="599.85" y="-73.75" class="st1" width="1.97" height="863.75"/>
							</g>
							<g>
								<rect x="603.79" y="-73.75" class="st1" width="1.97" height="863.75"/>
							</g>
							<g>
								<rect x="607.73" y="-73.75" class="st1" width="1.97" height="863.75"/>
							</g>
						</g>
						<g>
							<g>
								<rect x="611.68" y="-73.75" class="st1" width="1.97" height="863.75"/>
							</g>
							<g>
								<rect x="615.62" y="-73.75" class="st1" width="1.97" height="863.75"/>
							</g>
							<g>
								<rect x="619.56" y="-73.75" class="st1" width="1.97" height="863.75"/>
							</g>
							<g>
								<rect x="623.5" y="-73.75" class="st1" width="1.97" height="863.75"/>
							</g>
							<g>
								<rect x="627.45" y="-73.75" class="st1" width="1.97" height="863.75"/>
							</g>
						</g>
						<g>
							<g>
								<rect x="631.39" y="-73.75" class="st1" width="1.97" height="863.75"/>
							</g>
							<g>
								<rect x="635.33" y="-73.75" class="st1" width="1.97" height="863.75"/>
							</g>
							<g>
								<rect x="639.28" y="-73.75" class="st1" width="1.97" height="863.75"/>
							</g>
							<g>
								<rect x="643.22" y="-73.75" class="st1" width="1.97" height="863.75"/>
							</g>
							<g>
								<rect x="647.16" y="-73.75" class="st1" width="1.97" height="863.75"/>
							</g>
						</g>
						<g>
							<g>
								<rect x="651.1" y="-73.75" class="st1" width="1.97" height="863.75"/>
							</g>
							<g>
								<rect x="655.05" y="-73.75" class="st1" width="1.97" height="863.75"/>
							</g>
							<g>
								<rect x="658.99" y="-73.75" class="st1" width="1.97" height="863.75"/>
							</g>
							<g>
								<rect x="662.93" y="-73.75" class="st1" width="1.97" height="863.75"/>
							</g>
							<g>
								<rect x="666.88" y="-73.75" class="st1" width="1.97" height="863.75"/>
							</g>
						</g>
					</g>
					<g>
						<rect x="670.76" y="-73.75" class="st1" width="1.97" height="863.75"/>
					</g>
					<g>
						<rect x="674.7" y="-73.75" class="st1" width="1.97" height="863.75"/>
					</g>
					<g>
						<rect x="678.64" y="-73.75" class="st1" width="1.97" height="863.75"/>
					</g>
				</g>
			</g>
		</g>
	</g>
	<g>
		<g>
			<g>
				<g>
					<g>
						<g>
							<g>
								<rect x="682.39" y="-76" class="st1" width="1.97" height="863.75"/>
							</g>
							<g>
								<rect x="686.33" y="-76" class="st1" width="1.97" height="863.75"/>
							</g>
							<g>
								<rect x="690.27" y="-76" class="st1" width="1.97" height="863.75"/>
							</g>
							<g>
								<rect x="694.22" y="-76" class="st1" width="1.97" height="863.75"/>
							</g>
							<g>
								<rect x="698.16" y="-76" class="st1" width="1.97" height="863.75"/>
							</g>
						</g>
						<g>
							<g>
								<rect x="702.1" y="-76" class="st1" width="1.97" height="863.75"/>
							</g>
							<g>
								<rect x="706.04" y="-76" class="st1" width="1.97" height="863.75"/>
							</g>
							<g>
								<rect x="709.99" y="-76" class="st1" width="1.97" height="863.75"/>
							</g>
							<g>
								<rect x="713.93" y="-76" class="st1" width="1.97" height="863.75"/>
							</g>
							<g>
								<rect x="717.87" y="-76" class="st1" width="1.97" height="863.75"/>
							</g>
						</g>
						<g>
							<g>
								<rect x="721.82" y="-76" class="st1" width="1.97" height="863.75"/>
							</g>
							<g>
								<rect x="725.76" y="-76" class="st1" width="1.97" height="863.75"/>
							</g>
							<g>
								<rect x="729.7" y="-76" class="st1" width="1.97" height="863.75"/>
							</g>
							<g>
								<rect x="733.64" y="-76" class="st1" width="1.97" height="863.75"/>
							</g>
							<g>
								<rect x="737.59" y="-76" class="st1" width="1.97" height="863.75"/>
							</g>
						</g>
						<g>
							<g>
								<rect x="741.53" y="-76" class="st1" width="1.97" height="863.75"/>
							</g>
							<g>
								<rect x="745.47" y="-76" class="st1" width="1.97" height="863.75"/>
							</g>
							<g>
								<rect x="749.42" y="-76" class="st1" width="1.97" height="863.75"/>
							</g>
							<g>
								<rect x="753.36" y="-76" class="st1" width="1.97" height="863.75"/>
							</g>
							<g>
								<rect x="757.3" y="-76" class="st1" width="1.97" height="863.75"/>
							</g>
						</g>
					</g>
					<g>
						<rect x="761.18" y="-76" class="st1" width="1.97" height="863.75"/>
					</g>
					<g>
						<rect x="765.12" y="-76" class="st1" width="1.97" height="863.75"/>
					</g>
					<g>
						<rect x="769.07" y="-76" class="st1" width="1.97" height="863.75"/>
					</g>
				</g>
				<g>
					<g>
						<g>
							<g>
								<rect x="773.08" y="-76" class="st1" width="1.97" height="863.75"/>
							</g>
							<g>
								<rect x="777.02" y="-76" class="st1" width="1.97" height="863.75"/>
							</g>
							<g>
								<rect x="780.96" y="-76" class="st1" width="1.97" height="863.75"/>
							</g>
							<g>
								<rect x="784.91" y="-76" class="st1" width="1.97" height="863.75"/>
							</g>
							<g>
								<rect x="788.85" y="-76" class="st1" width="1.97" height="863.75"/>
							</g>
						</g>
						<g>
							<g>
								<rect x="792.79" y="-76" class="st1" width="1.97" height="863.75"/>
							</g>
							<g>
								<rect x="796.74" y="-76" class="st1" width="1.97" height="863.75"/>
							</g>
							<g>
								<rect x="800.68" y="-76" class="st1" width="1.97" height="863.75"/>
							</g>
							<g>
								<rect x="804.62" y="-76" class="st1" width="1.97" height="863.75"/>
							</g>
							<g>
								<rect x="808.56" y="-76" class="st1" width="1.97" height="863.75"/>
							</g>
						</g>
						<g>
							<g>
								<rect x="812.51" y="-76" class="st1" width="1.97" height="863.75"/>
							</g>
							<g>
								<rect x="816.45" y="-76" class="st1" width="1.97" height="863.75"/>
							</g>
							<g>
								<rect x="820.39" y="-76" class="st1" width="1.97" height="863.75"/>
							</g>
							<g>
								<rect x="824.34" y="-76" class="st1" width="1.97" height="863.75"/>
							</g>
							<g>
								<rect x="828.28" y="-76" class="st1" width="1.97" height="863.75"/>
							</g>
						</g>
						<g>
							<g>
								<rect x="832.22" y="-76" class="st1" width="1.97" height="863.75"/>
							</g>
							<g>
								<rect x="836.16" y="-76" class="st1" width="1.97" height="863.75"/>
							</g>
							<g>
								<rect x="840.11" y="-76" class="st1" width="1.97" height="863.75"/>
							</g>
							<g>
								<rect x="844.05" y="-76" class="st1" width="1.97" height="863.75"/>
							</g>
							<g>
								<rect x="847.99" y="-76" class="st1" width="1.97" height="863.75"/>
							</g>
						</g>
					</g>
					<g>
						<rect x="851.87" y="-76" class="st1" width="1.97" height="863.75"/>
					</g>
					<g>
						<rect x="855.82" y="-76" class="st1" width="1.97" height="863.75"/>
					</g>
					<g>
						<rect x="859.76" y="-76" class="st1" width="1.97" height="863.75"/>
					</g>
				</g>
			</g>
			<g>
				<g>
					<g>
						<g>
							<g>
								<rect x="863.46" y="-76" class="st1" width="1.97" height="863.75"/>
							</g>
							<g>
								<rect x="867.41" y="-76" class="st1" width="1.97" height="863.75"/>
							</g>
							<g>
								<rect x="871.35" y="-76" class="st1" width="1.97" height="863.75"/>
							</g>
							<g>
								<rect x="875.29" y="-76" class="st1" width="1.97" height="863.75"/>
							</g>
							<g>
								<rect x="879.24" y="-76" class="st1" width="1.97" height="863.75"/>
							</g>
						</g>
						<g>
							<g>
								<rect x="883.18" y="-76" class="st1" width="1.97" height="863.75"/>
							</g>
							<g>
								<rect x="887.12" y="-76" class="st1" width="1.97" height="863.75"/>
							</g>
							<g>
								<rect x="891.06" y="-76" class="st1" width="1.97" height="863.75"/>
							</g>
							<g>
								<rect x="895.01" y="-76" class="st1" width="1.97" height="863.75"/>
							</g>
							<g>
								<rect x="898.95" y="-76" class="st1" width="1.97" height="863.75"/>
							</g>
						</g>
						<g>
							<g>
								<rect x="902.89" y="-76" class="st1" width="1.97" height="863.75"/>
							</g>
							<g>
								<rect x="906.84" y="-76" class="st1" width="1.97" height="863.75"/>
							</g>
							<g>
								<rect x="910.78" y="-76" class="st1" width="1.97" height="863.75"/>
							</g>
							<g>
								<rect x="914.72" y="-76" class="st1" width="1.97" height="863.75"/>
							</g>
							<g>
								<rect x="918.66" y="-76" class="st1" width="1.97" height="863.75"/>
							</g>
						</g>
						<g>
							<g>
								<rect x="922.61" y="-76" class="st1" width="1.97" height="863.75"/>
							</g>
							<g>
								<rect x="926.55" y="-76" class="st1" width="1.97" height="863.75"/>
							</g>
							<g>
								<rect x="930.49" y="-76" class="st1" width="1.97" height="863.75"/>
							</g>
							<g>
								<rect x="934.44" y="-76" class="st1" width="1.97" height="863.75"/>
							</g>
							<g>
								<rect x="938.38" y="-76" class="st1" width="1.97" height="863.75"/>
							</g>
						</g>
					</g>
					<g>
						<rect x="942.26" y="-76" class="st1" width="1.97" height="863.75"/>
					</g>
					<g>
						<rect x="946.2" y="-76" class="st1" width="1.97" height="863.75"/>
					</g>
					<g>
						<rect x="950.14" y="-76" class="st1" width="1.97" height="863.75"/>
					</g>
				</g>
				<g>
					<g>
						<g>
							<g>
								<rect x="954.16" y="-76" class="st1" width="1.97" height="863.75"/>
							</g>
							<g>
								<rect x="958.1" y="-76" class="st1" width="1.97" height="863.75"/>
							</g>
							<g>
								<rect x="962.04" y="-76" class="st1" width="1.97" height="863.75"/>
							</g>
							<g>
								<rect x="965.98" y="-76" class="st1" width="1.97" height="863.75"/>
							</g>
							<g>
								<rect x="969.93" y="-76" class="st1" width="1.97" height="863.75"/>
							</g>
						</g>
						<g>
							<g>
								<rect x="973.87" y="-76" class="st1" width="1.97" height="863.75"/>
							</g>
							<g>
								<rect x="977.81" y="-76" class="st1" width="1.97" height="863.75"/>
							</g>
							<g>
								<rect x="981.76" y="-76" class="st1" width="1.97" height="863.75"/>
							</g>
							<g>
								<rect x="985.7" y="-76" class="st1" width="1.97" height="863.75"/>
							</g>
							<g>
								<rect x="989.64" y="-76" class="st1" width="1.97" height="863.75"/>
							</g>
						</g>
						<g>
							<g>
								<rect x="993.58" y="-76" class="st1" width="1.97" height="863.75"/>
							</g>
							<g>
								<rect x="997.53" y="-76" class="st1" width="1.97" height="863.75"/>
							</g>
							<g>
								<rect x="1001.47" y="-76" class="st1" width="1.97" height="863.75"/>
							</g>
							<g>
								<rect x="1005.41" y="-76" class="st1" width="1.97" height="863.75"/>
							</g>
							<g>
								<rect x="1009.36" y="-76" class="st1" width="1.97" height="863.75"/>
							</g>
						</g>
						<g>
							<g>
								<rect x="1013.3" y="-76" class="st1" width="1.97" height="863.75"/>
							</g>
							<g>
								<rect x="1017.24" y="-76" class="st1" width="1.97" height="863.75"/>
							</g>
							<g>
								<rect x="1021.18" y="-76" class="st1" width="1.97" height="863.75"/>
							</g>
							<g>
								<rect x="1025.13" y="-76" class="st1" width="1.97" height="863.75"/>
							</g>
							<g>
								<rect x="1029.07" y="-76" class="st1" width="1.97" height="863.75"/>
							</g>
						</g>
					</g>
					<g>
						<rect x="1032.95" y="-76" class="st1" width="1.97" height="863.75"/>
					</g>
					<g>
						<rect x="1036.89" y="-76" class="st1" width="1.97" height="863.75"/>
					</g>
					<g>
						<rect x="1040.83" y="-76" class="st1" width="1.97" height="863.75"/>
					</g>
				</g>
			</g>
		</g>
		<g>
			<g>
				<g>
					<g>
						<g>
							<g>
								<rect x="1044.58" y="-76" class="st1" width="1.97" height="863.75"/>
							</g>
							<g>
								<rect x="1048.52" y="-76" class="st1" width="1.97" height="863.75"/>
							</g>
							<g>
								<rect x="1052.47" y="-76" class="st1" width="1.97" height="863.75"/>
							</g>
							<g>
								<rect x="1056.41" y="-76" class="st1" width="1.97" height="863.75"/>
							</g>
							<g>
								<rect x="1060.35" y="-76" class="st1" width="1.97" height="863.75"/>
							</g>
						</g>
						<g>
							<g>
								<rect x="1064.3" y="-76" class="st1" width="1.97" height="863.75"/>
							</g>
							<g>
								<rect x="1068.24" y="-76" class="st1" width="1.97" height="863.75"/>
							</g>
							<g>
								<rect x="1072.18" y="-76" class="st1" width="1.97" height="863.75"/>
							</g>
							<g>
								<rect x="1076.12" y="-76" class="st1" width="1.97" height="863.75"/>
							</g>
							<g>
								<rect x="1080.07" y="-76" class="st1" width="1.97" height="863.75"/>
							</g>
						</g>
						<g>
							<g>
								<rect x="1084.01" y="-76" class="st1" width="1.97" height="863.75"/>
							</g>
							<g>
								<rect x="1087.95" y="-76" class="st1" width="1.97" height="863.75"/>
							</g>
							<g>
								<rect x="1091.9" y="-76" class="st1" width="1.97" height="863.75"/>
							</g>
							<g>
								<rect x="1095.84" y="-76" class="st1" width="1.97" height="863.75"/>
							</g>
							<g>
								<rect x="1099.78" y="-76" class="st1" width="1.97" height="863.75"/>
							</g>
						</g>
						<g>
							<g>
								<rect x="1103.72" y="-76" class="st1" width="1.97" height="863.75"/>
							</g>
							<g>
								<rect x="1107.67" y="-76" class="st1" width="1.97" height="863.75"/>
							</g>
							<g>
								<rect x="1111.61" y="-76" class="st1" width="1.97" height="863.75"/>
							</g>
							<g>
								<rect x="1115.55" y="-76" class="st1" width="1.97" height="863.75"/>
							</g>
							<g>
								<rect x="1119.5" y="-76" class="st1" width="1.97" height="863.75"/>
							</g>
						</g>
					</g>
					<g>
						<rect x="1123.38" y="-76" class="st1" width="1.97" height="863.75"/>
					</g>
					<g>
						<rect x="1127.32" y="-76" class="st1" width="1.97" height="863.75"/>
					</g>
					<g>
						<rect x="1131.26" y="-76" class="st1" width="1.97" height="863.75"/>
					</g>
				</g>
				<g>
					<g>
						<g>
							<g>
								<rect x="1135.27" y="-76" class="st1" width="1.97" height="863.75"/>
							</g>
							<g>
								<rect x="1139.22" y="-76" class="st1" width="1.97" height="863.75"/>
							</g>
							<g>
								<rect x="1143.16" y="-76" class="st1" width="1.97" height="863.75"/>
							</g>
							<g>
								<rect x="1147.1" y="-76" class="st1" width="1.97" height="863.75"/>
							</g>
							<g>
								<rect x="1151.04" y="-76" class="st1" width="1.97" height="863.75"/>
							</g>
						</g>
						<g>
							<g>
								<rect x="1154.99" y="-76" class="st1" width="1.97" height="863.75"/>
							</g>
							<g>
								<rect x="1158.93" y="-76" class="st1" width="1.97" height="863.75"/>
							</g>
							<g>
								<rect x="1162.87" y="-76" class="st1" width="1.97" height="863.75"/>
							</g>
							<g>
								<rect x="1166.82" y="-76" class="st1" width="1.97" height="863.75"/>
							</g>
							<g>
								<rect x="1170.76" y="-76" class="st1" width="1.97" height="863.75"/>
							</g>
						</g>
						<g>
							<g>
								<rect x="1174.7" y="-76" class="st1" width="1.97" height="863.75"/>
							</g>
							<g>
								<rect x="1178.64" y="-76" class="st1" width="1.97" height="863.75"/>
							</g>
							<g>
								<rect x="1182.59" y="-76" class="st1" width="1.97" height="863.75"/>
							</g>
							<g>
								<rect x="1186.53" y="-76" class="st1" width="1.97" height="863.75"/>
							</g>
							<g>
								<rect x="1190.47" y="-76" class="st1" width="1.97" height="863.75"/>
							</g>
						</g>
						<g>
							<g>
								<rect x="1194.42" y="-76" class="st1" width="1.97" height="863.75"/>
							</g>
							<g>
								<rect x="1198.36" y="-76" class="st1" width="1.97" height="863.75"/>
							</g>
							<g>
								<rect x="1202.3" y="-76" class="st1" width="1.97" height="863.75"/>
							</g>
							<g>
								<rect x="1206.24" y="-76" class="st1" width="1.97" height="863.75"/>
							</g>
							<g>
								<rect x="1210.19" y="-76" class="st1" width="1.97" height="863.75"/>
							</g>
						</g>
					</g>
					<g>
						<rect x="1214.07" y="-76" class="st1" width="1.97" height="863.75"/>
					</g>
					<g>
						<rect x="1218.01" y="-76" class="st1" width="1.97" height="863.75"/>
					</g>
					<g>
						<rect x="1221.95" y="-76" class="st1" width="1.97" height="863.75"/>
					</g>
				</g>
			</g>
			<g>
				<g>
					<g>
						<g>
							<g>
								<rect x="1225.66" y="-76" class="st1" width="1.97" height="863.75"/>
							</g>
							<g>
								<rect x="1229.6" y="-76" class="st1" width="1.97" height="863.75"/>
							</g>
							<g>
								<rect x="1233.54" y="-76" class="st1" width="1.97" height="863.75"/>
							</g>
							<g>
								<rect x="1237.49" y="-76" class="st1" width="1.97" height="863.75"/>
							</g>
							<g>
								<rect x="1241.43" y="-76" class="st1" width="1.97" height="863.75"/>
							</g>
						</g>
						<g>
							<g>
								<rect x="1245.37" y="-76" class="st1" width="1.97" height="863.75"/>
							</g>
							<g>
								<rect x="1249.31" y="-76" class="st1" width="1.97" height="863.75"/>
							</g>
							<g>
								<rect x="1253.26" y="-76" class="st1" width="1.97" height="863.75"/>
							</g>
							<g>
								<rect x="1257.2" y="-76" class="st1" width="1.97" height="863.75"/>
							</g>
							<g>
								<rect x="1261.14" y="-76" class="st1" width="1.97" height="863.75"/>
							</g>
						</g>
						<g>
							<g>
								<rect x="1265.09" y="-76" class="st1" width="1.97" height="863.75"/>
							</g>
							<g>
								<rect x="1269.03" y="-76" class="st1" width="1.97" height="863.75"/>
							</g>
							<g>
								<rect x="1272.97" y="-76" class="st1" width="1.97" height="863.75"/>
							</g>
							<g>
								<rect x="1276.91" y="-76" class="st1" width="1.97" height="863.75"/>
							</g>
							<g>
								<rect x="1280.86" y="-76" class="st1" width="1.97" height="863.75"/>
							</g>
						</g>
						<g>
							<g>
								<rect x="1284.8" y="-76" class="st1" width="1.97" height="863.75"/>
							</g>
							<g>
								<rect x="1288.74" y="-76" class="st1" width="1.97" height="863.75"/>
							</g>
							<g>
								<rect x="1292.69" y="-76" class="st1" width="1.97" height="863.75"/>
							</g>
							<g>
								<rect x="1296.63" y="-76" class="st1" width="1.97" height="863.75"/>
							</g>
							<g>
								<rect x="1300.57" y="-76" class="st1" width="1.97" height="863.75"/>
							</g>
						</g>
					</g>
					<g>
						<rect x="1304.45" y="-76" class="st1" width="1.97" height="863.75"/>
					</g>
					<g>
						<rect x="1308.39" y="-76" class="st1" width="1.97" height="863.75"/>
					</g>
					<g>
						<rect x="1312.34" y="-76" class="st1" width="1.97" height="863.75"/>
					</g>
				</g>
				<g>
					<g>
						<g>
							<g>
								<rect x="1316.35" y="-76" class="st1" width="1.97" height="863.75"/>
							</g>
							<g>
								<rect x="1320.29" y="-76" class="st1" width="1.97" height="863.75"/>
							</g>
							<g>
								<rect x="1324.23" y="-76" class="st1" width="1.97" height="863.75"/>
							</g>
							<g>
								<rect x="1328.18" y="-76" class="st1" width="1.97" height="863.75"/>
							</g>
							<g>
								<rect x="1332.12" y="-76" class="st1" width="1.97" height="863.75"/>
							</g>
						</g>
						<g>
							<g>
								<rect x="1336.06" y="-76" class="st1" width="1.97" height="863.75"/>
							</g>
							<g>
								<rect x="1340.01" y="-76" class="st1" width="1.97" height="863.75"/>
							</g>
							<g>
								<rect x="1343.95" y="-76" class="st1" width="1.97" height="863.75"/>
							</g>
							<g>
								<rect x="1347.89" y="-76" class="st1" width="1.97" height="863.75"/>
							</g>
							<g>
								<rect x="1351.83" y="-76" class="st1" width="1.97" height="863.75"/>
							</g>
						</g>
						<g>
							<g>
								<rect x="1355.78" y="-76" class="st1" width="1.97" height="863.75"/>
							</g>
							<g>
								<rect x="1359.72" y="-76" class="st1" width="1.97" height="863.75"/>
							</g>
							<g>
								<rect x="1363.66" y="-76" class="st1" width="1.97" height="863.75"/>
							</g>
							<g>
								<rect x="1367.61" y="-76" class="st1" width="1.97" height="863.75"/>
							</g>
							<g>
								<rect x="1371.55" y="-76" class="st1" width="1.97" height="863.75"/>
							</g>
						</g>
						<g>
							<g>
								<rect x="1375.49" y="-76" class="st1" width="1.97" height="863.75"/>
							</g>
							<g>
								<rect x="1379.44" y="-76" class="st1" width="1.97" height="863.75"/>
							</g>
							<g>
								<rect x="1383.38" y="-76" class="st1" width="1.97" height="863.75"/>
							</g>
							<g>
								<rect x="1387.32" y="-76" class="st1" width="1.97" height="863.75"/>
							</g>
							<g>
								<rect x="1391.26" y="-76" class="st1" width="1.97" height="863.75"/>
							</g>
						</g>
					</g>
					<g>
						<rect x="1395.14" y="-76" class="st1" width="1.97" height="863.75"/>
					</g>
					<g>
						<rect x="1399.09" y="-76" class="st1" width="1.97" height="863.75"/>
					</g>
					<g>
						<rect x="1403.03" y="-76" class="st1" width="1.97" height="863.75"/>
					</g>
				</g>
			</g>
		</g>
	</g>
</g>
</svg>
